<svg width="106" height="24" viewBox="0 0 106 24" fill="none" xmlns="http://www.w3.org/2000/svg">
<g clip-path="url(#clip0_16252_2187)">
<path d="M7.84058 12.4578C7.84058 9.9079 9.90766 7.84082 12.4575 7.84082L19.383 7.84082C21.9329 7.84082 23.9999 9.9079 23.9999 12.4578C23.9999 15.0077 21.9329 17.0747 19.383 17.0747H12.4575C9.90766 17.0747 7.84058 15.0077 7.84058 12.4578Z" fill="#FF868E"/>
<path d="M12.4575 24C9.90766 24 7.84058 21.9329 7.84058 19.383L7.84058 12.4576C7.84058 9.90772 9.90766 7.84063 12.4575 7.84063C15.0074 7.84063 17.0745 9.90772 17.0745 12.4576V19.383C17.0745 21.9329 15.0074 24 12.4575 24Z" fill="#FF868E"/>
<path d="M11.5424 2.8856C11.5424 4.47927 10.2505 5.7712 8.65684 5.7712C7.06317 5.7712 5.77124 4.47927 5.77124 2.8856C5.77124 1.29193 7.06317 0 8.65684 0C10.2505 0 11.5424 1.29193 11.5424 2.8856Z" fill="#FF868E"/>
<path d="M5.7712 16.7362C5.7712 18.3299 4.47927 19.6218 2.8856 19.6218C1.29193 19.6218 0 18.3299 0 16.7362C0 15.1425 1.29193 13.8506 2.8856 13.8506C4.47927 13.8506 5.7712 15.1425 5.7712 16.7362Z" fill="#FF868E"/>
<path d="M19.622 2.8856C19.622 4.47927 18.3301 5.7712 16.7364 5.7712C15.1428 5.7712 13.8508 4.47927 13.8508 2.8856C13.8508 1.29193 15.1428 0 16.7364 0C18.3301 0 19.622 1.29193 19.622 2.8856Z" fill="#FF868E"/>
<path d="M5.7712 8.65709C5.7712 10.2508 4.47927 11.5427 2.8856 11.5427C1.29193 11.5427 0 10.2508 0 8.65709C0 7.06341 1.29193 5.77148 2.8856 5.77148C4.47927 5.77148 5.7712 7.06341 5.7712 8.65709Z" fill="#FF868E"/>
<path d="M31.8945 18.8003V6.43555H37.6929C38.6657 6.43555 39.4593 6.62115 40.0737 6.99235C40.7009 7.36355 41.1681 7.86915 41.4753 8.50915C41.7825 9.14915 41.9361 9.87875 41.9361 10.6979C41.9361 11.5299 41.7569 12.2659 41.3985 12.9059C41.0529 13.5459 40.5537 14.0451 39.9009 14.4035C39.2609 14.7491 38.4993 14.9219 37.6161 14.9219H34.4865V18.8003H31.8945ZM34.4865 12.8675H37.0785C37.8209 12.8675 38.3777 12.6755 38.7489 12.2915C39.1329 11.8947 39.3249 11.3635 39.3249 10.6979C39.3249 9.98115 39.1457 9.43715 38.7873 9.06595C38.4289 8.68195 37.8913 8.48995 37.1745 8.48995H34.4865V12.8675Z" fill="#1D1D1D"/>
<path d="M48.1119 18.9923C46.5375 18.9923 45.2895 18.6019 44.3679 17.8211C43.4463 17.0275 42.9855 15.8307 42.9855 14.2307C42.9855 12.7843 43.3695 11.6387 44.1375 10.7939C44.9183 9.93635 46.0767 9.50755 47.6127 9.50755C49.0207 9.50755 50.0959 9.87875 50.8383 10.6211C51.5935 11.3507 51.9711 12.3107 51.9711 13.5011V15.1523L45.3855 15.1523C45.5263 15.8819 45.8591 16.3811 46.3839 16.6499C46.9215 16.9187 47.6767 17.0531 48.6495 17.0531C49.1359 17.0531 49.6287 17.0083 50.1279 16.9187C50.6399 16.8291 51.0751 16.7139 51.4335 16.5731V18.4163C51.0111 18.6083 50.5183 18.7491 49.9551 18.8387C49.3919 18.9411 48.7775 18.9923 48.1119 18.9923ZM45.3855 13.5587H49.7055V13.0595C49.7055 12.5347 49.5519 12.1251 49.2447 11.8307C48.9375 11.5235 48.4191 11.3699 47.6895 11.3699C46.8319 11.3699 46.2303 11.5427 45.8847 11.8883C45.5519 12.2339 45.3855 12.7907 45.3855 13.5587Z" fill="#1D1D1D"/>
<path d="M57.3854 18.9923C56.3358 18.9923 55.555 18.7171 55.043 18.1667C54.5438 17.6163 54.2942 16.8675 54.2942 15.9203V11.6963H53.0078V9.69955H54.2942V7.74115L56.8862 6.97315V9.69955H59.1902L59.0366 11.6963H56.8862V15.7475C56.8862 16.2467 57.0014 16.5923 57.2318 16.7843C57.4622 16.9635 57.8206 17.0531 58.307 17.0531C58.6654 17.0531 59.0366 16.9891 59.4206 16.8611V18.6467C59.139 18.7619 58.8318 18.8451 58.499 18.8963C58.1662 18.9603 57.795 18.9923 57.3854 18.9923Z" fill="#1D1D1D"/>
<path d="M63.9572 18.9923C63.2788 18.9923 62.6324 18.9411 62.018 18.8387C61.4036 18.7491 60.9108 18.6339 60.5396 18.4931V16.3427C60.9876 16.5219 61.4932 16.6627 62.0564 16.7651C62.6196 16.8547 63.138 16.8995 63.6116 16.8995C64.2516 16.8995 64.6996 16.8611 64.9556 16.7843C65.2244 16.7075 65.3588 16.5347 65.3588 16.2659C65.3588 15.9587 65.154 15.7347 64.7444 15.5939C64.3476 15.4531 63.7524 15.2547 62.9588 14.9987C62.1268 14.7171 61.4868 14.3779 61.0388 13.9811C60.5908 13.5843 60.3668 12.9955 60.3668 12.2147C60.3668 11.3443 60.6804 10.6787 61.3076 10.2179C61.9476 9.74435 62.9716 9.50755 64.3796 9.50755C64.9428 9.50755 65.474 9.55235 65.9732 9.64195C66.4724 9.71875 66.8948 9.81475 67.2404 9.92995V12.0611C66.8948 11.8947 66.498 11.7731 66.05 11.6963C65.602 11.6067 65.186 11.5619 64.802 11.5619C64.2516 11.5619 63.81 11.6003 63.4772 11.6771C63.1572 11.7539 62.9972 11.9203 62.9972 12.1763C62.9972 12.4579 63.17 12.6563 63.5156 12.7715C63.874 12.8867 64.4244 13.0595 65.1668 13.2899C65.8964 13.5075 66.466 13.7443 66.8756 14.0003C67.2852 14.2563 67.5732 14.5635 67.7396 14.9219C67.906 15.2675 67.9892 15.7027 67.9892 16.2275C67.9892 18.0707 66.6452 18.9923 63.9572 18.9923Z" fill="#1D1D1D"/>
<path d="M69.7883 18.8003V6.43555L75.5867 6.43555C76.5595 6.43555 77.3531 6.62115 77.9675 6.99235C78.5947 7.36355 79.0619 7.86915 79.3691 8.50915C79.6763 9.14915 79.8299 9.87875 79.8299 10.6979C79.8299 11.5299 79.6507 12.2659 79.2923 12.9059C78.9467 13.5459 78.4475 14.0451 77.7947 14.4035C77.1547 14.7491 76.3931 14.9219 75.5099 14.9219H72.3803V18.8003H69.7883ZM72.3803 12.8675H74.9723C75.7147 12.8675 76.2715 12.6755 76.6427 12.2915C77.0267 11.8947 77.2187 11.3635 77.2187 10.6979C77.2187 9.98115 77.0395 9.43715 76.6811 9.06595C76.3227 8.68195 75.7851 8.48995 75.0683 8.48995H72.3803V12.8675Z" fill="#1D1D1D"/>
<path d="M83.7491 18.9923C83.1731 18.9923 82.6355 18.8899 82.1363 18.6851C81.6499 18.4675 81.2531 18.1539 80.9459 17.7443C80.6515 17.3219 80.5043 16.7971 80.5043 16.1699C80.5043 15.2739 80.8179 14.5571 81.4451 14.0195C82.0851 13.4819 83.0259 13.2131 84.2675 13.2131H86.9555V12.9635C86.9555 12.4003 86.7955 12.0035 86.4755 11.7731C86.1683 11.5427 85.5411 11.4275 84.5939 11.4275C83.5571 11.4275 82.5587 11.5875 81.5987 11.9075V10.0835C82.0211 9.91715 82.5331 9.78275 83.1347 9.68035C83.7491 9.56515 84.4147 9.50755 85.1315 9.50755C86.5011 9.50755 87.5571 9.78915 88.2995 10.3523C89.0547 10.9027 89.4323 11.7923 89.4323 13.0211V18.8003H87.1859L87.0515 17.9747C86.6931 18.2947 86.2515 18.5443 85.7267 18.7235C85.2019 18.9027 84.5427 18.9923 83.7491 18.9923ZM84.4595 17.2835C85.0355 17.2835 85.5347 17.1875 85.9571 16.9955C86.3795 16.8035 86.7123 16.5603 86.9555 16.2659V14.8259H84.3251C83.3139 14.8259 82.8083 15.2419 82.8083 16.0739C82.8083 16.8803 83.3587 17.2835 84.4595 17.2835Z" fill="#1D1D1D"/>
<path d="M93.048 18.8003L90.648 9.69955H93.24L94.6224 15.6131L96.1392 10.8707V9.69955H98.1168L99.8448 15.6131L101.189 9.69955H103.762L101.381 18.8003H99L97.2528 13.4819L95.4672 18.8003H93.048Z" fill="#1D1D1D"/>
</g>
<defs>
<clipPath id="clip0_16252_2187">
<rect width="106" height="24" fill="white"/>
</clipPath>
</defs>
</svg>
